<svg xmlns="http://www.w3.org/2000/svg" viewBox="0 0 265.56 191.61"><defs><style>.cls-1{fill:none;}.cls-2{fill:#c2ff30;}.cls-3{fill:#1f3753;}</style></defs><title>Asset 2</title><g id="Layer_2" data-name="Layer 2"><g id="Layer_2-2" data-name="Layer 2"><path class="cls-1" d="M117,71.7h44.92a2.59,2.59,0,0,0,2.66-2.52v-.09a2.56,2.56,0,0,0-2.24-2.49l0,0H145.6a2.52,2.52,0,0,1-2.52-2.52V64a2.52,2.52,0,0,1,2.52-2.52h33.2a2.52,2.52,0,0,0,2.52-2.52v-.09a2.51,2.51,0,0,0-2.52-2.52h-40a2.52,2.52,0,0,1-2.52-2.52V53.7a2.52,2.52,0,0,1,2.52-2.52h31.48a2.52,2.52,0,0,0,2.52-2.52v-.09a2.52,2.52,0,0,0-2.52-2.52H152.77c-.21,0-.42,0-.63,0H131.71L115.57,71.7Z"/><path class="cls-2" d="M131.71,46H92.51a3.33,3.33,0,0,1-1-.17L75.27,71.7h40.3Z"/><path class="cls-2" d="M89.52,107.75H52.62L0,191.5H40.3l52.62-83.76h-3.4Z"/><rect class="cls-3" x="125.34" y="61.44" width="9.64" height="5.13" rx="2.52"/><circle class="cls-3" cx="242.54" cy="23.02" r="23.02"/><rect class="cls-3" x="29.95" y="100.54" width="11.48" height="7.21" rx="3.61"/><rect class="cls-3" x="58.79" y="24.41" width="12.64" height="7.2" rx="3.43"/><path class="cls-3" d="M192.67,100.36C208,88.3,219.51,74.16,219.51,58.85c0-26.93-29.9-48.84-67.37-48.84H49.72a3.42,3.42,0,0,0-3.43,3.43v.33a3.43,3.43,0,0,0,3.43,3.44H98.33a3.42,3.42,0,0,1,3.43,3.43V21a3.43,3.43,0,0,1-3.43,3.44H79a3.43,3.43,0,0,0-3.43,3.43v.33A3.44,3.44,0,0,0,79,31.61h27.49A3.43,3.43,0,0,1,109.9,35v.33a3.44,3.44,0,0,1-3.44,3.44H92.51a3.43,3.43,0,0,0-3.43,3.43v.33a3.42,3.42,0,0,0,2.43,3.27,3.33,3.33,0,0,0,1,.17h59.63c.21,0,.42,0,.63,0h17.51a2.52,2.52,0,0,1,2.52,2.52v.09a2.52,2.52,0,0,1-2.52,2.52H138.8a2.52,2.52,0,0,0-2.52,2.52v.09a2.52,2.52,0,0,0,2.52,2.52h40a2.51,2.51,0,0,1,2.52,2.52v.09a2.52,2.52,0,0,1-2.52,2.52H145.6A2.52,2.52,0,0,0,143.08,64v.09a2.52,2.52,0,0,0,2.52,2.52h16.79l0,0a2.56,2.56,0,0,1,2.24,2.49v.09a2.59,2.59,0,0,1-2.66,2.52H30a3.61,3.61,0,0,0-3.6,3.61h0A3.61,3.61,0,0,0,30,78.91H76.39a3.61,3.61,0,1,1,0,7.21H15a3.63,3.63,0,0,0-3.64,3.61h0A3.63,3.63,0,0,0,15,93.33H84.51a3.61,3.61,0,0,1,0,7.21H51a3.61,3.61,0,0,0,0,7.21H92.92c8.89,0,18.23,0,24.11,0,10.73,0,30.42,0,31.93.17a12.62,12.62,0,0,1,11.63,12.6,12.45,12.45,0,0,1-4.52,9.6c-4.81,4-39.75,32.55-39.75,32.55l21.45,29,39.41-32.23,0,0c11.67-8.94,26.28-21.68,26.28-37.48C203.44,113.26,197.88,104.92,192.67,100.36Z"/></g></g></svg>